<?xml version="1.0" standalone="no"?>
<!DOCTYPE svg PUBLIC "-//W3C//DTD SVG 20010904//EN"
 "http://www.w3.org/TR/2001/REC-SVG-20010904/DTD/svg10.dtd">
<svg version="1.0" xmlns="http://www.w3.org/2000/svg"
 width="512.000000pt" height="512.000000pt" viewBox="0 0 512.000000 512.000000"
 preserveAspectRatio="xMidYMid meet">
<metadata>
Created by potrace 1.14, written by Peter Selinger 2001-2017
</metadata>
<g transform="translate(0.000000,512.000000) scale(0.100000,-0.100000)"
fill="#000000" stroke="none">
<path d="M0 2560 l0 -2560 2560 0 2560 0 0 2560 0 2560 -2560 0 -2560 0 0
-2560z m2669 590 c491 -481 897 -876 902 -878 5 -2 9 392 9 907 0 501 3 911 8
911 4 0 82 -37 175 -82 l167 -82 0 -1335 0 -1335 -157 155 c-87 85 -690 676
-1340 1313 -651 637 -1183 1161 -1183 1164 0 4 100 52 223 108 l222 101 40
-36 c22 -19 442 -429 934 -911z m811 143 l0 -798 -170 170 -170 170 2 553 3
553 160 73 c88 41 163 74 168 75 4 1 7 -358 7 -796z m-1001 -772 c680 -662
1269 -1236 1308 -1275 l73 -71 -216 -78 c-119 -43 -221 -76 -227 -73 -7 3
-428 410 -936 905 -509 496 -929 901 -933 901 -4 0 -8 -403 -8 -896 0 -849 -1
-896 -17 -890 -10 4 -89 35 -175 69 l-158 62 0 1299 0 1299 27 -24 c15 -13
583 -566 1262 -1228z m-679 -88 l149 -138 1 -556 0 -556 -147 -68 c-82 -38
-151 -70 -155 -72 -5 -3 -8 340 -8 761 0 421 2 766 6 766 3 0 72 -62 154 -137z"/>
</g>
</svg>
